<!-- Generator: Adobe Illustrator 25.0.0, SVG Export Plug-In  -->
<svg version="1.1" xmlns="http://www.w3.org/2000/svg" xmlns:xlink="http://www.w3.org/1999/xlink" x="0px" y="0px"
	 width="430.532px" height="73.632px" viewBox="0 0 430.532 73.632"
	 style="overflow:visible;enable-background:new 0 0 430.532 73.632;" xml:space="preserve">
<style type="text/css">
	.st0{fill-rule:evenodd;clip-rule:evenodd;fill:#FFFFFF;}
</style>
<defs>
</defs>
<g>
	<path class="st0" d="M183.452,13.949c-0.48-4.004-4.057-6.166-7.66-6.166c-6.006,0-8.995,4.724-8.995,9.929
		c0,5.205,2.989,9.929,8.995,9.929c4.458,0,7.42-2.989,7.927-7.66h-1.815c-0.347,3.389-2.589,6.112-6.112,6.112
		c-5.045,0-7.18-4.217-7.18-8.381s2.135-8.381,7.18-8.381c2.776,0,5.205,1.682,5.845,4.618H183.452 M191.308,13.068
		c-4.218,0-6.513,3.336-6.513,7.287c0,3.95,2.295,7.286,6.513,7.286c4.217,0,6.512-3.336,6.512-7.286
		C197.82,16.404,195.525,13.068,191.308,13.068z M191.308,14.483c3.229,0,4.831,2.936,4.831,5.872s-1.602,5.872-4.831,5.872
		c-3.23,0-4.831-2.936-4.831-5.872S188.078,14.483,191.308,14.483z M199.648,8.183V27.24h1.681V8.183H199.648z M215.408,20.808
		c0.133-3.87-1.629-7.74-6.06-7.74c-4.377,0-6.218,3.657-6.218,7.287c0,3.923,1.841,7.286,6.218,7.286
		c3.471,0,5.285-1.815,6.006-4.938h-1.681c-0.534,2.082-1.869,3.524-4.325,3.524c-3.229,0-4.51-2.963-4.537-5.419H215.408z
		 M204.811,19.393c0.267-2.508,1.788-4.91,4.537-4.91c2.723,0,4.298,2.375,4.378,4.91H204.811z M223.218,25.666
		c-3.096,0-4.537-2.696-4.537-5.472c0-2.856,1.335-5.711,4.537-5.711c3.177,0,4.431,3.015,4.431,5.711
		C227.649,22.997,226.128,25.666,223.218,25.666z M229.331,13.468h-1.682v2.376c-0.72-1.522-2.429-2.776-4.431-2.776
		c-3.977,0-6.218,3.149-6.218,6.939c0,3.924,1.815,7.074,6.218,7.074c1.976,0,3.604-1.148,4.378-2.83l0.053,1.834
		c0,3.364-1.334,5.206-4.431,5.206c-1.868,0-3.656-0.721-4.03-2.75h-1.682c0.241,2.936,2.963,4.164,5.712,4.164
		c4.512,0,6.086-2.509,6.113-6.62V13.468z M232.299,13.468v13.773h1.681V13.468H232.299z M232.299,8.183v2.695h1.681V8.183H232.299z
		 M242.317,13.068c-4.217,0-6.513,3.336-6.513,7.287c0,3.95,2.296,7.286,6.513,7.286s6.513-3.336,6.513-7.286
		C248.83,16.404,246.534,13.068,242.317,13.068z M242.317,14.483c3.23,0,4.831,2.936,4.831,5.872s-1.601,5.872-4.831,5.872
		s-4.831-2.936-4.831-5.872S239.087,14.483,242.317,14.483z"/>
	<path class="st0" d="M0,65.934c0.208,6.001,5.422,7.698,10.512,7.698c4.842,0,10.305-1.904,10.305-7.657
		c0-1.779-1.117-4.924-5.463-5.793c-3.227-0.704-7.946-1.076-7.946-3.104c0-1.49,1.863-1.614,3.022-1.614
		c0.869,0,1.655,0.165,2.234,0.538c0.579,0.373,0.911,0.952,0.911,1.862h6.497c-0.249-5.587-5.173-6.952-9.891-6.952
		c-4.221,0-9.808,1.407-9.808,6.58c0,5.794,5.545,5.918,9.973,7.035c1.242,0.29,3.435,0.621,3.435,2.276
		c0,1.697-1.944,2.276-3.31,2.276c-0.994,0-1.945-0.248-2.608-0.745c-0.703-0.538-1.158-1.324-1.158-2.4H0 M29.32,66.845
		c0-1.697,1.324-2.359,2.897-2.732c1.531-0.414,3.352-0.537,4.345-1.158c0.166,4.427-0.952,6.331-4.303,6.331
		C30.685,69.286,29.32,68.583,29.32,66.845z M29.734,58.154c0.331-1.821,1.572-2.69,3.518-2.69c1.448,0,3.393,0.621,3.393,2.235
		c0,1.324-0.662,1.738-1.863,1.986c-4.883,0.993-12.497,0.455-12.497,7.449c0,4.428,3.227,6.498,7.324,6.498
		c2.567,0,5.256-0.746,7.077-2.649c0.083,0.704,0.166,1.365,0.414,2.028h7.077c-0.828-1.697-0.828-3.684-0.828-5.504v-9.395
		c0-6.083-4.924-7.2-10.015-7.2c-2.441,0-4.924,0.414-6.828,1.49c-1.903,1.117-3.228,2.938-3.352,5.752H29.734z M46.169,73.011
		h7.035V61.299c0-2.359,1.159-4.594,3.808-4.594c3.848,0,3.518,2.98,3.518,5.918v10.388h7.035V59.23c0-3.104-0.58-8.318-7.74-8.318
		c-2.565,0-5.462,1.365-6.745,3.559l-0.083-2.938h-6.828V73.011z M83.384,51.533h-4.345v-6.498h-7.036v6.498h-3.559v4.552h3.559
		v9.56c0,5.834,1.532,7.573,7.532,7.573c1.283,0,2.566-0.166,3.849-0.207v-5.173c-0.621,0-1.242,0.083-1.821,0.083
		c-1.531,0-2.524-0.373-2.524-2.07v-9.766h4.345V51.533z M91.798,66.845c0-1.697,1.324-2.359,2.896-2.732
		c1.532-0.414,3.353-0.537,4.345-1.158c0.166,4.427-0.951,6.331-4.303,6.331C93.163,69.286,91.798,68.583,91.798,66.845z
		 M92.212,58.154c0.33-1.821,1.572-2.69,3.517-2.69c1.448,0,3.394,0.621,3.394,2.235c0,1.324-0.663,1.738-1.863,1.986
		c-4.883,0.993-12.498,0.455-12.498,7.449c0,4.428,3.228,6.498,7.325,6.498c2.566,0,5.255-0.746,7.077-2.649
		c0.083,0.704,0.165,1.365,0.413,2.028h7.077c-0.828-1.697-0.828-3.684-0.828-5.504v-9.395c0-6.083-4.924-7.2-10.014-7.2
		c-2.442,0-4.925,0.414-6.829,1.49c-1.903,1.117-3.228,2.938-3.352,5.752H92.212z"/>
	<path class="st0" d="M168.832,33.451h-29.689v13.657h12.864c-0.989,6.433-7.125,10.689-16.229,10.689
		c-11.877,0-16.428-10.491-16.428-20.98c0-10.491,4.551-20.982,16.428-20.982c7.422,0,13.36,3.662,13.953,9.7h18.408
		C166.457,7.82,150.82,0,136.174,0c-21.377,0-35.232,16.331-35.232,36.817s13.855,36.815,35.232,36.815
		c6.531,0,14.844-2.376,19.693-9.205l1.089,7.72h11.876V33.451 M293.656,45.017c0.604-3.323,2.869-4.908,6.419-4.908
		c2.641,0,6.191,1.133,6.191,4.077c0,2.416-1.209,3.171-3.399,3.623c-8.909,1.813-22.8,0.831-22.8,13.591
		c0,8.079,5.888,11.854,13.362,11.854c4.682,0,9.589-1.359,12.912-4.832c0.15,1.284,0.301,2.491,0.754,3.699h12.911
		c-1.51-3.095-1.51-6.72-1.51-10.041V44.941c0-11.099-8.984-13.137-18.271-13.137c-4.455,0-8.985,0.754-12.458,2.718
		c-3.472,2.039-5.889,5.36-6.115,10.495H293.656z M292.902,60.872c0-3.096,2.416-4.303,5.284-4.983
		c2.794-0.756,6.116-0.982,7.928-2.114c0.302,8.078-1.737,11.551-7.852,11.551C295.393,65.326,292.902,64.043,292.902,60.872z
		 M216.361,72.121h12.835V53.019c0-8.002,1.963-10.645,6.568-10.645c3.473,0,4.833,2.869,4.833,7.475v22.272h12.835V52.944
		c0-6.342,0.528-10.57,6.04-10.57c3.321,0,5.36,2.492,5.36,6.72v23.027h12.836V48.716c0-7.474-1.36-16.912-13.817-16.912
		c-5.286,0-9.136,2.189-12.232,6.342c-2.113-4.757-6.493-6.342-11.4-6.342c-4.757,0-8.909,2.567-11.25,6.493l-0.151-5.827h-12.457
		V72.121z M213.133,55.662c0.605-13.288-6.417-23.858-20.461-23.858c-11.551,0-21.14,8.607-21.14,20.611
		c0,13.137,8.683,20.839,21.442,20.839c8.759,0,17.14-3.926,19.481-12.986h-12.006c-1.208,2.869-4.228,4.303-7.324,4.303
		c-5.435,0-8.531-3.548-8.758-8.909H213.133z M184.367,48.489c0.756-4.757,3.776-8.003,8.305-8.003c4.305,0,7.4,3.624,7.626,8.003
		H184.367z"/>
	<path class="st0" d="M336.118,63.274h-8.303v1.589h6.658c0.083,4.138-2.438,7.179-6.768,7.179c-5.179,0-7.371-4.329-7.371-8.604
		c0-4.274,2.192-8.604,7.371-8.604c3.727,0,6.056,2.658,6.302,4.905h1.864c-0.712-4.275-4.056-6.495-8.166-6.495
		c-6.165,0-9.234,4.851-9.234,10.194c0,5.343,3.069,10.194,9.234,10.194c2.822,0,5.453-1.179,6.768-3.974l0.302,3.563h1.343V63.274
		 M337.541,73.221h2.001l2.356-6.084h8.906l2.384,6.084h2l-7.672-19.565h-2.083L337.541,73.221z M346.392,55.519l3.782,10.029h-7.7
		L346.392,55.519z M356.968,73.221h12.824v-1.59h-10.961V53.656h-1.863V73.221z M388.394,63.274h-8.303v1.589h6.658
		c0.082,4.138-2.438,7.179-6.768,7.179c-5.179,0-7.371-4.329-7.371-8.604c0-4.274,2.192-8.604,7.371-8.604
		c3.727,0,6.056,2.658,6.302,4.905h1.864c-0.713-4.275-4.056-6.495-8.166-6.495c-6.166,0-9.234,4.851-9.234,10.194
		c0,5.343,3.068,10.194,9.234,10.194c2.822,0,5.453-1.179,6.768-3.974l0.302,3.563h1.343V63.274z M389.817,73.221h2.001l2.356-6.084
		h8.906l2.384,6.084h2l-7.673-19.565h-2.082L389.817,73.221z M398.668,55.519l3.782,10.029h-7.7L398.668,55.519z M409.217,73.221
		h1.863V56.67l11.454,16.551h2.082V53.656h-1.863v16.55l-11.454-16.55h-2.082V73.221z M428.668,53.656v19.565h1.864V53.656H428.668z
		"/>
</g>
</svg>